<svg width="144" height="111" viewBox="0 0 144 111" fill="none" xmlns="http://www.w3.org/2000/svg">
<path d="M124.432 110.763L12.6476 55.7628L143.634 55.7628L124.432 110.763Z" fill="#FFB802"/>
<path d="M15.7103 64.1593L107.171 109.159H0L15.7103 64.1593Z" fill="#FFB802"/>
<path d="M78.2372 8.33334C62.1122 8.33334 49.0706 21.375 49.0706 37.5C49.0706 59.375 78.2372 91.6667 78.2372 91.6667C78.2372 91.6667 107.404 59.375 107.404 37.5C107.404 21.375 94.3622 8.33334 78.2372 8.33334ZM78.2372 47.9167C72.4872 47.9167 67.8206 43.25 67.8206 37.5C67.8206 31.75 72.4872 27.0833 78.2372 27.0833C83.9872 27.0833 88.6539 31.75 88.6539 37.5C88.6539 43.25 83.9872 47.9167 78.2372 47.9167Z" fill="#023AFF"/>
</svg>
