<svg width="144" height="113" viewBox="0 0 144 113" fill="none" xmlns="http://www.w3.org/2000/svg">
<path d="M124.432 55.7628L12.6476 0.762755L143.634 0.762755L124.432 55.7628Z" fill="#FFB802"/>
<path d="M15.7103 9.1593L107.171 54.1593H0L15.7103 9.1593Z" fill="#FFB802"/>
<path d="M10.835 100.638V75.7078C10.835 73.4578 11.63 71.5228 13.22 69.9028C14.81 68.2528 16.685 67.4278 18.845 67.4278H19.97C20.33 67.4278 20.63 67.5628 20.87 67.8328C21.11 68.1028 21.23 68.4178 21.23 68.7778C21.23 69.1378 21.11 69.4528 20.87 69.7228C20.63 69.9628 20.33 70.0828 19.97 70.0828H19.205C17.675 70.0828 16.385 70.6228 15.335 71.7028C14.315 72.7528 13.79 74.0128 13.76 75.4828V80.4778H20.195C20.495 80.4778 20.735 80.5978 20.915 80.8378C21.125 81.0778 21.23 81.3478 21.23 81.6478C21.23 82.0078 21.125 82.3078 20.915 82.5478C20.735 82.7878 20.495 82.9078 20.195 82.9078H13.76V100.638C13.76 100.968 13.61 101.238 13.31 101.448C13.01 101.658 12.65 101.763 12.23 101.763C11.84 101.763 11.51 101.658 11.24 101.448C10.97 101.238 10.835 100.968 10.835 100.638ZM46.8702 100.593V81.5578C46.8702 81.2278 47.0052 80.9728 47.2752 80.7928C47.5452 80.5828 47.8902 80.4778 48.3102 80.4778C48.6702 80.4778 48.9852 80.5828 49.2552 80.7928C49.5252 81.0028 49.6602 81.2578 49.6602 81.5578V83.6278C50.1702 82.6678 50.9502 81.8578 52.0002 81.1978C53.0502 80.5378 54.2802 80.2078 55.6902 80.2078C57.8502 80.2078 59.7252 81.0328 61.3152 82.6828C62.9052 84.3328 63.7002 86.3128 63.7002 88.6228V100.593C63.7002 100.953 63.5502 101.238 63.2502 101.448C62.9502 101.658 62.6052 101.763 62.2152 101.763C61.8552 101.763 61.5252 101.658 61.2252 101.448C60.9252 101.238 60.7752 100.953 60.7752 100.593V88.6228C60.7752 87.1528 60.2202 85.8328 59.1102 84.6628C58.0002 83.4928 56.6802 82.9078 55.1502 82.9078C53.7402 82.9078 52.4952 83.4328 51.4152 84.4828C50.3352 85.5328 49.7952 86.9128 49.7952 88.6228V100.593C49.7952 100.893 49.6452 101.163 49.3452 101.403C49.0452 101.643 48.7002 101.763 48.3102 101.763C47.8902 101.763 47.5452 101.643 47.2752 101.403C47.0052 101.163 46.8702 100.893 46.8702 100.593ZM78.1132 95.1478V71.4328C78.1132 71.1328 78.2632 70.8778 78.5632 70.6678C78.8632 70.4578 79.1932 70.3528 79.5532 70.3528C79.9432 70.3528 80.2882 70.4578 80.5882 70.6678C80.8882 70.8778 81.0382 71.1328 81.0382 71.4328V80.4778H86.8432C87.1432 80.4778 87.3832 80.5978 87.5632 80.8378C87.7732 81.0778 87.8782 81.3628 87.8782 81.6928C87.8782 82.0228 87.7732 82.3078 87.5632 82.5478C87.3832 82.7878 87.1432 82.9078 86.8432 82.9078H81.0382V95.1478C81.0382 96.6178 81.3382 97.6528 81.9382 98.2528C82.5682 98.8228 83.6632 99.1078 85.2232 99.1078H86.4832C86.8732 99.1078 87.1882 99.2428 87.4282 99.5128C87.6982 99.7528 87.8332 100.053 87.8332 100.413C87.8332 100.773 87.6982 101.088 87.4282 101.358C87.1882 101.628 86.8732 101.763 86.4832 101.763H85.2232C80.4832 101.763 78.1132 99.5578 78.1132 95.1478ZM91.5625 100.593V81.5578C91.5625 81.2578 91.6975 81.0028 91.9675 80.7928C92.2375 80.5828 92.5825 80.4778 93.0025 80.4778C93.3925 80.4778 93.7225 80.5828 93.9925 80.7928C94.2625 81.0028 94.3975 81.2578 94.3975 81.5578V83.7628C94.9375 82.7728 95.7325 81.9328 96.7825 81.2428C97.8325 80.5528 99.0475 80.2078 100.428 80.2078H102.003C102.303 80.2078 102.573 80.3428 102.813 80.6128C103.053 80.8828 103.173 81.1978 103.173 81.5578C103.173 81.9178 103.053 82.2328 102.813 82.5028C102.573 82.7728 102.303 82.9078 102.003 82.9078H100.428C98.8675 82.9078 97.4875 83.5228 96.2875 84.7528C95.0875 85.9528 94.4875 87.5278 94.4875 89.4778V100.593C94.4875 100.893 94.3375 101.163 94.0375 101.403C93.7675 101.643 93.4225 101.763 93.0025 101.763C92.6125 101.763 92.2675 101.643 91.9675 101.403C91.6975 101.163 91.5625 100.893 91.5625 100.593ZM115.073 111.078V81.5578C115.073 81.2578 115.208 81.0028 115.478 80.7928C115.748 80.5828 116.093 80.4778 116.513 80.4778C116.903 80.4778 117.233 80.5828 117.503 80.7928C117.773 81.0028 117.908 81.2578 117.908 81.5578V83.6278C118.448 82.6678 119.243 81.8578 120.293 81.1978C121.343 80.5378 122.558 80.2078 123.938 80.2078C126.158 80.2078 128.063 81.0328 129.653 82.6828C131.243 84.3328 132.038 86.3128 132.038 88.6228V93.5278C132.038 95.7778 131.228 97.7728 129.608 99.5128C128.018 101.223 126.173 102.078 124.073 102.078C122.753 102.078 121.538 101.748 120.428 101.088C119.318 100.398 118.508 99.5728 117.998 98.6128V111.078C117.998 111.348 117.848 111.603 117.548 111.843C117.278 112.083 116.933 112.203 116.513 112.203C116.123 112.203 115.778 112.083 115.478 111.843C115.208 111.603 115.073 111.348 115.073 111.078ZM117.998 94.9228C117.998 95.7328 118.553 96.6778 119.663 97.7578C120.803 98.8378 122.093 99.3778 123.533 99.3778C125.003 99.3778 126.293 98.7778 127.403 97.5778C128.543 96.3778 129.113 95.0278 129.113 93.5278V88.6228C129.113 87.1528 128.543 85.8328 127.403 84.6628C126.293 83.4928 124.973 82.9078 123.443 82.9078C122.003 82.9078 120.728 83.4328 119.618 84.4828C118.538 85.5328 117.998 86.9128 117.998 88.6228V94.9228Z" fill="#6786F3"/>
<path d="M24.3209 93.6178V81.6028C24.3209 81.3328 24.4559 81.0778 24.7259 80.8378C25.0259 80.5978 25.3859 80.4778 25.8059 80.4778C26.1659 80.4778 26.4959 80.5978 26.7959 80.8378C27.0959 81.0778 27.2459 81.3328 27.2459 81.6028V93.6178C27.2459 95.1178 27.8009 96.4528 28.9109 97.6228C30.0209 98.7928 31.3409 99.3778 32.8709 99.3778C34.4009 99.3778 35.7209 98.7928 36.8309 97.6228C37.9409 96.4528 38.4959 95.1178 38.4959 93.6178V81.5578C38.4959 81.2578 38.6459 81.0028 38.9459 80.7928C39.2459 80.5828 39.5909 80.4778 39.9809 80.4778C40.3709 80.4778 40.7009 80.5828 40.9709 80.7928C41.2709 81.0028 41.4209 81.2578 41.4209 81.5578V93.6178C41.4209 95.8678 40.5659 97.8478 38.8559 99.5578C37.1759 101.238 35.1809 102.078 32.8709 102.078C30.5309 102.078 28.5209 101.238 26.8409 99.5578C25.1609 97.8478 24.3209 95.8678 24.3209 93.6178ZM106.46 73.6378C106.07 73.2478 105.875 72.7978 105.875 72.2878C105.875 71.7778 106.07 71.3428 106.46 70.9828C106.85 70.6228 107.33 70.4428 107.9 70.4428C108.44 70.4428 108.89 70.6228 109.25 70.9828C109.64 71.3428 109.835 71.7778 109.835 72.2878C109.835 72.7978 109.64 73.2478 109.25 73.6378C108.89 73.9978 108.44 74.1778 107.9 74.1778C107.33 74.1778 106.85 73.9978 106.46 73.6378ZM106.46 100.593V81.5578C106.46 81.2578 106.595 81.0028 106.865 80.7928C107.135 80.5828 107.48 80.4778 107.9 80.4778C108.32 80.4778 108.665 80.5828 108.935 80.7928C109.235 81.0028 109.385 81.2578 109.385 81.5578V100.593C109.385 100.893 109.235 101.163 108.935 101.403C108.635 101.643 108.29 101.763 107.9 101.763C107.51 101.763 107.165 101.643 106.865 101.403C106.595 101.163 106.46 100.893 106.46 100.593Z" fill="#F4B104"/>
</svg>
