<svg width="60" height="50" viewBox="0 0 60 50" fill="none" xmlns="http://www.w3.org/2000/svg">
<path d="M8.76152 28.2002L60 49.3107H0L8.76152 28.2002Z" fill="#0027B2"/>
<path d="M24.9614 0C16.6686 0 9.96149 6.70712 9.96149 15C9.96149 26.25 24.9614 42.8571 24.9614 42.8571C24.9614 42.8571 39.9615 26.25 39.9615 15C39.9615 6.70712 33.2543 0 24.9614 0ZM24.9614 20.3571C22.0043 20.3571 19.6043 17.9571 19.6043 15C19.6043 12.0428 22.0043 9.64286 24.9614 9.64286C27.9186 9.64286 30.3186 12.0428 30.3186 15C30.3186 17.9571 27.9186 20.3571 24.9614 20.3571Z" fill="#99AFFF"/>
</svg>
