<svg width="253" height="36" viewBox="0 0 253 36" fill="none" xmlns="http://www.w3.org/2000/svg">
<path d="M63.902 14H65.834V11.368L69.474 10.332V14H72.89V17.08H69.474V22.456C69.474 23.4267 69.5674 24.1267 69.754 24.556C69.9594 24.9667 70.3327 25.172 70.874 25.172C71.2474 25.172 71.5647 25.1347 71.826 25.06C72.106 24.9853 72.414 24.8733 72.75 24.724L73.394 27.524C72.89 27.7667 72.302 27.972 71.63 28.14C70.958 28.308 70.2767 28.392 69.586 28.392C68.298 28.392 67.346 28.0653 66.73 27.412C66.1327 26.74 65.834 25.648 65.834 24.136V17.08H63.902V14ZM85.3678 28V20.048C85.3678 18.9093 85.2091 18.088 84.8918 17.584C84.5744 17.08 83.9958 16.828 83.1558 16.828C82.5398 16.828 81.9704 17.0427 81.4478 17.472C80.9438 17.8827 80.6078 18.4147 80.4398 19.068V28H76.7998V8.4H80.4398V15.568H80.5518C80.9998 14.9707 81.5504 14.4947 82.2038 14.14C82.8571 13.7853 83.6878 13.608 84.6958 13.608C85.4051 13.608 86.0304 13.7013 86.5718 13.888C87.1131 14.0747 87.5611 14.3827 87.9158 14.812C88.2891 15.2413 88.5598 15.8293 88.7278 16.576C88.9144 17.304 89.0078 18.2093 89.0078 19.292V28H85.3678ZM94.0456 14H97.6856V28H94.0456V14ZM93.5136 10.052C93.5136 9.51067 93.7096 9.05333 94.1016 8.68C94.5122 8.288 95.0722 8.092 95.7816 8.092C96.4909 8.092 97.0602 8.288 97.4896 8.68C97.9376 9.05333 98.1616 9.51067 98.1616 10.052C98.1616 10.5933 97.9376 11.0507 97.4896 11.424C97.0602 11.7787 96.4909 11.956 95.7816 11.956C95.0722 11.956 94.5122 11.7787 94.1016 11.424C93.7096 11.0507 93.5136 10.5933 93.5136 10.052ZM108.733 24.136C108.733 23.7627 108.574 23.464 108.257 23.24C107.94 23.016 107.548 22.8107 107.081 22.624C106.614 22.4373 106.101 22.2507 105.541 22.064C104.981 21.8587 104.468 21.588 104.001 21.252C103.534 20.8973 103.142 20.4587 102.825 19.936C102.508 19.3947 102.349 18.704 102.349 17.864C102.349 16.4827 102.76 15.428 103.581 14.7C104.402 13.972 105.588 13.608 107.137 13.608C108.201 13.608 109.162 13.72 110.021 13.944C110.88 14.168 111.552 14.42 112.037 14.7L111.225 17.332C110.796 17.164 110.254 16.9867 109.601 16.8C108.948 16.6133 108.285 16.52 107.613 16.52C106.53 16.52 105.989 16.94 105.989 17.78C105.989 18.116 106.148 18.3867 106.465 18.592C106.782 18.7973 107.174 18.9933 107.641 19.18C108.108 19.348 108.621 19.5347 109.181 19.74C109.741 19.9453 110.254 20.216 110.721 20.552C111.188 20.8693 111.58 21.2893 111.897 21.812C112.214 22.3347 112.373 23.0067 112.373 23.828C112.373 25.2467 111.916 26.3667 111.001 27.188C110.105 27.9907 108.752 28.392 106.941 28.392C105.952 28.392 105.018 28.2613 104.141 28C103.282 27.7573 102.582 27.468 102.041 27.132L103.049 24.416C103.478 24.6587 104.048 24.9013 104.757 25.144C105.466 25.368 106.194 25.48 106.941 25.48C107.482 25.48 107.912 25.3773 108.229 25.172C108.565 24.9667 108.733 24.6213 108.733 24.136ZM125.5 14H129.14V28H125.5V14ZM124.968 10.052C124.968 9.51067 125.164 9.05333 125.556 8.68C125.966 8.288 126.526 8.092 127.236 8.092C127.945 8.092 128.514 8.288 128.944 8.68C129.392 9.05333 129.616 9.51067 129.616 10.052C129.616 10.5933 129.392 11.0507 128.944 11.424C128.514 11.7787 127.945 11.956 127.236 11.956C126.526 11.956 125.966 11.7787 125.556 11.424C125.164 11.0507 124.968 10.5933 124.968 10.052ZM132.935 14H134.867V11.368L138.507 10.332V14H141.923V17.08H138.507V22.456C138.507 23.4267 138.6 24.1267 138.787 24.556C138.992 24.9667 139.366 25.172 139.907 25.172C140.28 25.172 140.598 25.1347 140.859 25.06C141.139 24.9853 141.447 24.8733 141.783 24.724L142.427 27.524C141.923 27.7667 141.335 27.972 140.663 28.14C139.991 28.308 139.31 28.392 138.619 28.392C137.331 28.392 136.379 28.0653 135.763 27.412C135.166 26.74 134.867 25.648 134.867 24.136V17.08H132.935V14ZM146.141 14H149.781V28H146.141V14ZM145.609 10.052C145.609 9.51067 145.805 9.05333 146.197 8.68C146.608 8.288 147.168 8.092 147.877 8.092C148.586 8.092 149.156 8.288 149.585 8.68C150.033 9.05333 150.257 9.51067 150.257 10.052C150.257 10.5933 150.033 11.0507 149.585 11.424C149.156 11.7787 148.586 11.956 147.877 11.956C147.168 11.956 146.608 11.7787 146.197 11.424C145.805 11.0507 145.609 10.5933 145.609 10.052ZM163.6 28V20.048C163.6 18.9093 163.432 18.088 163.096 17.584C162.779 17.08 162.228 16.828 161.444 16.828C160.754 16.828 160.166 17.0333 159.68 17.444C159.214 17.836 158.878 18.3307 158.672 18.928V28H155.032V14H157.916L158.336 15.848H158.448C158.878 15.2507 159.447 14.728 160.156 14.28C160.866 13.832 161.78 13.608 162.9 13.608C163.591 13.608 164.207 13.7013 164.748 13.888C165.29 14.0747 165.747 14.3827 166.12 14.812C166.494 15.2413 166.774 15.8293 166.96 16.576C167.147 17.304 167.24 18.2093 167.24 19.292V28H163.6ZM183.17 26.796C182.61 27.244 181.845 27.6267 180.874 27.944C179.922 28.2427 178.905 28.392 177.822 28.392C175.564 28.392 173.912 27.7387 172.866 26.432C171.821 25.1067 171.298 23.296 171.298 21C171.298 18.536 171.886 16.688 173.062 15.456C174.238 14.224 175.89 13.608 178.018 13.608C178.728 13.608 179.418 13.7013 180.09 13.888C180.762 14.0747 181.36 14.3827 181.882 14.812C182.405 15.2413 182.825 15.82 183.142 16.548C183.46 17.276 183.618 18.1813 183.618 19.264C183.618 19.656 183.59 20.076 183.534 20.524C183.497 20.972 183.432 21.4387 183.338 21.924H174.938C174.994 23.1 175.293 23.9867 175.834 24.584C176.394 25.1813 177.29 25.48 178.522 25.48C179.288 25.48 179.969 25.368 180.566 25.144C181.182 24.9013 181.649 24.6587 181.966 24.416L183.17 26.796ZM177.962 16.52C177.01 16.52 176.301 16.8093 175.834 17.388C175.386 17.948 175.116 18.704 175.022 19.656H180.23C180.305 18.648 180.146 17.8733 179.754 17.332C179.381 16.7907 178.784 16.52 177.962 16.52ZM195.597 17.416C195.018 17.2107 194.496 17.108 194.029 17.108C193.376 17.108 192.825 17.2853 192.377 17.64C191.948 17.976 191.658 18.4147 191.509 18.956V28H187.869V14H190.697L191.117 15.848H191.229C191.546 15.1573 191.976 14.6253 192.517 14.252C193.058 13.8787 193.693 13.692 194.421 13.692C194.906 13.692 195.457 13.7947 196.073 14L195.597 17.416ZM199.281 14.812C200.028 14.476 200.915 14.2147 201.941 14.028C202.968 13.8227 204.041 13.72 205.161 13.72C206.132 13.72 206.944 13.8413 207.597 14.084C208.251 14.308 208.764 14.6347 209.137 15.064C209.529 15.4933 209.8 16.0067 209.949 16.604C210.117 17.2013 210.201 17.8733 210.201 18.62C210.201 19.4413 210.173 20.272 210.117 21.112C210.061 21.9333 210.024 22.7453 210.005 23.548C210.005 24.3507 210.033 25.1347 210.089 25.9C210.145 26.6467 210.285 27.356 210.509 28.028H207.541L206.953 26.096H206.813C206.44 26.6747 205.917 27.1787 205.245 27.608C204.592 28.0187 203.743 28.224 202.697 28.224C202.044 28.224 201.456 28.1307 200.933 27.944C200.411 27.7387 199.963 27.4587 199.589 27.104C199.216 26.7307 198.927 26.3013 198.721 25.816C198.516 25.312 198.413 24.752 198.413 24.136C198.413 23.2773 198.6 22.5587 198.973 21.98C199.365 21.3827 199.916 20.9067 200.625 20.552C201.353 20.1787 202.212 19.9267 203.201 19.796C204.209 19.6467 205.329 19.6 206.561 19.656C206.692 18.6107 206.617 17.864 206.337 17.416C206.057 16.9493 205.432 16.716 204.461 16.716C203.733 16.716 202.959 16.7907 202.137 16.94C201.335 17.0893 200.672 17.2853 200.149 17.528L199.281 14.812ZM203.901 25.228C204.629 25.228 205.208 25.0693 205.637 24.752C206.067 24.416 206.384 24.0613 206.589 23.688V21.868C206.011 21.812 205.451 21.8027 204.909 21.84C204.387 21.8773 203.92 21.9613 203.509 22.092C203.099 22.2227 202.772 22.4093 202.529 22.652C202.287 22.8947 202.165 23.2027 202.165 23.576C202.165 24.0987 202.315 24.5093 202.613 24.808C202.931 25.088 203.36 25.228 203.901 25.228ZM222.664 17.416C222.085 17.2107 221.563 17.108 221.096 17.108C220.443 17.108 219.892 17.2853 219.444 17.64C219.015 17.976 218.725 18.4147 218.576 18.956V28H214.936V14H217.764L218.184 15.848H218.296C218.613 15.1573 219.043 14.6253 219.584 14.252C220.125 13.8787 220.76 13.692 221.488 13.692C221.973 13.692 222.524 13.7947 223.14 14L222.664 17.416ZM231.528 21.868L232.032 24.052H232.2L232.564 21.84L234.692 14H238.444L234.188 26.628C233.834 27.6733 233.488 28.6253 233.152 29.484C232.835 30.3613 232.48 31.1173 232.088 31.752C231.696 32.3867 231.258 32.872 230.772 33.208C230.306 33.5627 229.746 33.74 229.092 33.74C228.122 33.74 227.347 33.5813 226.768 33.264L227.44 30.352C227.72 30.464 228 30.52 228.28 30.52C228.71 30.52 229.12 30.3333 229.512 29.96C229.923 29.6053 230.231 28.952 230.436 28L224.584 14H228.952L231.528 21.868ZM243.695 22.176C243.602 21.2053 243.649 20.384 243.835 19.712C244.022 19.0213 244.274 18.4333 244.591 17.948C244.927 17.444 245.301 17.0147 245.711 16.66C246.141 16.2867 246.533 15.932 246.887 15.596C247.261 15.26 247.569 14.9147 247.811 14.56C248.054 14.1867 248.175 13.748 248.175 13.244C248.175 12.5907 247.989 12.068 247.615 11.676C247.261 11.284 246.617 11.088 245.683 11.088C245.385 11.088 245.067 11.1253 244.731 11.2C244.395 11.256 244.059 11.3493 243.723 11.48C243.387 11.592 243.061 11.732 242.743 11.9C242.445 12.0493 242.174 12.208 241.931 12.376L240.531 9.688C241.241 9.20267 242.053 8.80133 242.967 8.484C243.901 8.16667 245.021 8.008 246.327 8.008C248.082 8.008 249.454 8.43733 250.443 9.296C251.433 10.136 251.927 11.2747 251.927 12.712C251.927 13.664 251.797 14.4573 251.535 15.092C251.293 15.708 250.985 16.24 250.611 16.688C250.238 17.1173 249.827 17.5 249.379 17.836C248.931 18.172 248.521 18.536 248.147 18.928C247.774 19.3013 247.457 19.74 247.195 20.244C246.934 20.748 246.803 21.392 246.803 22.176H243.695ZM243.135 26.152C243.135 25.4987 243.341 24.9853 243.751 24.612C244.162 24.22 244.703 24.024 245.375 24.024C246.085 24.024 246.645 24.22 247.055 24.612C247.466 24.9853 247.671 25.4987 247.671 26.152C247.671 26.8053 247.466 27.328 247.055 27.72C246.645 28.112 246.085 28.308 245.375 28.308C244.703 28.308 244.162 28.112 243.751 27.72C243.341 27.328 243.135 26.8053 243.135 26.152Z" fill="#3D414F"/>
<path d="M14.084 28H1.68V8.4H5.516V24.584H14.084V28ZM17.9668 14H21.6068V28H17.9668V14ZM17.4348 10.052C17.4348 9.51067 17.6308 9.05333 18.0228 8.68C18.4335 8.288 18.9935 8.092 19.7028 8.092C20.4121 8.092 20.9815 8.288 21.4108 8.68C21.8588 9.05333 22.0828 9.51067 22.0828 10.052C22.0828 10.5933 21.8588 11.0507 21.4108 11.424C20.9815 11.7787 20.4121 11.956 19.7028 11.956C18.9935 11.956 18.4335 11.7787 18.0228 11.424C17.6308 11.0507 17.4348 10.5933 17.4348 10.052ZM31.4783 22.204H30.4983V28H26.8583V8.4H30.4983V19.964L31.3383 19.572L34.5303 14H38.5343L35.1743 19.32L33.7463 20.384L35.2863 21.476L39.0663 28H34.8943L31.4783 22.204ZM53.1641 26.796C52.6041 27.244 51.8388 27.6267 50.8681 27.944C49.9161 28.2427 48.8988 28.392 47.8161 28.392C45.5575 28.392 43.9055 27.7387 42.8601 26.432C41.8148 25.1067 41.2921 23.296 41.2921 21C41.2921 18.536 41.8801 16.688 43.0561 15.456C44.2321 14.224 45.8841 13.608 48.0121 13.608C48.7215 13.608 49.4121 13.7013 50.0841 13.888C50.7561 14.0747 51.3535 14.3827 51.8761 14.812C52.3988 15.2413 52.8188 15.82 53.1361 16.548C53.4535 17.276 53.6121 18.1813 53.6121 19.264C53.6121 19.656 53.5841 20.076 53.5281 20.524C53.4908 20.972 53.4255 21.4387 53.3321 21.924H44.9321C44.9881 23.1 45.2868 23.9867 45.8281 24.584C46.3881 25.1813 47.2841 25.48 48.5161 25.48C49.2815 25.48 49.9628 25.368 50.5601 25.144C51.1761 24.9013 51.6428 24.6587 51.9601 24.416L53.1641 26.796ZM47.9561 16.52C47.0041 16.52 46.2948 16.8093 45.8281 17.388C45.3801 17.948 45.1095 18.704 45.0161 19.656H50.2241C50.2988 18.648 50.1401 17.8733 49.7481 17.332C49.3748 16.7907 48.7775 16.52 47.9561 16.52Z" fill="#F15353"/>
<path d="M20 13.675L19.275 13.015C16.7 10.68 15 9.14 15 7.25C15 5.71 16.21 4.5 17.75 4.5C18.62 4.5 19.455 4.905 20 5.545C20.545 4.905 21.38 4.5 22.25 4.5C23.79 4.5 25 5.71 25 7.25C25 9.14 23.3 10.68 20.725 13.02L20 13.675Z" fill="#F15353"/>
</svg>
