<svg width="66" height="64" viewBox="0 0 66 64" fill="none" xmlns="http://www.w3.org/2000/svg">
<path d="M20 23.5L62.6987 41.0921H12.6987L20 23.5Z" fill="#0027B2"/>
<path d="M33.5 0C26.5893 0 21 5.58926 21 12.5C21 21.875 33.5 35.7142 33.5 35.7142C33.5 35.7142 46 21.875 46 12.5C46 5.58926 40.4107 0 33.5 0ZM33.5 16.9643C31.0357 16.9643 29.0357 14.9643 29.0357 12.5C29.0357 10.0357 31.0357 8.03572 33.5 8.03572C35.9642 8.03572 37.9643 10.0357 37.9643 12.5C37.9643 14.9643 35.9642 16.9643 33.5 16.9643Z" fill="#99AFFF"/>
<path d="M3.34105 32.6H5.99705V55H3.34105V32.6ZM12.2395 48H13.2755L13.5695 46.614L14.6895 46.292L14.3255 48H16.1595L15.9495 48.896H14.1295L13.2475 53.124C13.2289 53.236 13.2102 53.3387 13.1915 53.432C13.1822 53.5253 13.1775 53.6093 13.1775 53.684C13.1775 53.908 13.2289 54.062 13.3315 54.146C13.4342 54.23 13.5882 54.272 13.7935 54.272C14.0175 54.272 14.2229 54.244 14.4095 54.188C14.5962 54.132 14.7829 54.048 14.9695 53.936V54.79C14.7735 54.902 14.5215 54.9907 14.2135 55.056C13.9055 55.1307 13.6115 55.168 13.3315 55.168C12.4822 55.168 12.0575 54.7807 12.0575 54.006C12.0575 53.8473 12.0809 53.6513 12.1275 53.418L13.0795 48.896H12.0295L12.2395 48ZM19.2742 48H20.3242L18.8402 55H17.7902L19.2742 48ZM19.4982 45.858C19.4982 45.6433 19.5682 45.4613 19.7082 45.312C19.8576 45.1627 20.0396 45.088 20.2542 45.088C20.4689 45.088 20.6509 45.1627 20.8002 45.312C20.9496 45.4613 21.0242 45.6433 21.0242 45.858C21.0242 46.0727 20.9496 46.2547 20.8002 46.404C20.6509 46.544 20.4689 46.614 20.2542 46.614C20.0396 46.614 19.8576 46.544 19.7082 46.404C19.5682 46.2547 19.4982 46.0727 19.4982 45.858ZM26.6913 55L27.6293 50.576C27.6666 50.408 27.6993 50.2447 27.7273 50.086C27.7553 49.918 27.7693 49.7687 27.7693 49.638C27.7693 49.3673 27.7039 49.148 27.5733 48.98C27.4519 48.812 27.2186 48.728 26.8733 48.728C26.6306 48.728 26.3926 48.784 26.1593 48.896C25.9259 49.008 25.7066 49.1527 25.5013 49.33C25.2959 49.498 25.1093 49.6893 24.9413 49.904C24.7826 50.1093 24.6473 50.3147 24.5353 50.52L23.6113 55H22.5613L24.0453 48H24.7733L24.7173 49.204H24.7733C24.8946 49.0547 25.0393 48.9007 25.2073 48.742C25.3753 48.574 25.5619 48.4247 25.7673 48.294C25.9819 48.1633 26.2199 48.056 26.4813 47.972C26.7426 47.8787 27.0319 47.832 27.3493 47.832C27.8159 47.832 28.1846 47.944 28.4553 48.168C28.7259 48.392 28.8613 48.784 28.8613 49.344C28.8613 49.624 28.8193 49.96 28.7353 50.352L27.7413 55H26.6913ZM36.2177 54.314C35.8911 54.594 35.5037 54.8087 35.0557 54.958C34.6171 55.098 34.1737 55.168 33.7257 55.168C32.9791 55.168 32.4144 54.9533 32.0317 54.524C31.6584 54.0947 31.4717 53.4973 31.4717 52.732C31.4717 51.9667 31.5791 51.2807 31.7937 50.674C32.0084 50.0673 32.2884 49.554 32.6337 49.134C32.9884 48.714 33.3851 48.392 33.8237 48.168C34.2717 47.944 34.7291 47.832 35.1957 47.832C35.5317 47.832 35.8211 47.8787 36.0637 47.972C36.3157 48.0653 36.5211 48.1913 36.6797 48.35C36.8384 48.4993 36.9551 48.6767 37.0297 48.882C37.1044 49.078 37.1417 49.288 37.1417 49.512C37.1417 50.1747 36.8197 50.6973 36.1757 51.08C35.5317 51.4533 34.5937 51.64 33.3617 51.64C33.2497 51.64 33.1331 51.64 33.0117 51.64C32.8904 51.6307 32.7644 51.6213 32.6337 51.612C32.5964 51.7893 32.5684 51.9573 32.5497 52.116C32.5311 52.2747 32.5217 52.4147 32.5217 52.536C32.5217 53.0493 32.6384 53.4693 32.8717 53.796C33.1051 54.1133 33.4691 54.272 33.9637 54.272C34.3744 54.272 34.7477 54.2067 35.0837 54.076C35.4291 53.936 35.6951 53.7913 35.8817 53.642L36.2177 54.314ZM35.0277 48.728C34.5144 48.728 34.0664 48.9053 33.6837 49.26C33.3104 49.6053 33.0257 50.128 32.8297 50.828C33.1844 50.828 33.5531 50.8187 33.9357 50.8C34.3184 50.7813 34.6637 50.7347 34.9717 50.66C35.2891 50.576 35.5504 50.45 35.7557 50.282C35.9611 50.1047 36.0637 49.862 36.0637 49.554C36.0637 49.4607 36.0451 49.3673 36.0077 49.274C35.9797 49.1713 35.9284 49.0827 35.8537 49.008C35.7791 48.924 35.6717 48.8587 35.5317 48.812C35.4011 48.756 35.2331 48.728 35.0277 48.728ZM43.7202 48.924C43.6362 48.9053 43.5475 48.8913 43.4542 48.882C43.3702 48.8727 43.2909 48.868 43.2162 48.868C42.7402 48.868 42.3295 49.0173 41.9842 49.316C41.6389 49.6147 41.3682 49.9787 41.1722 50.408L40.2062 55H39.1562L40.6402 48H41.3682V49.204H41.4242C41.5362 49.0267 41.6575 48.8633 41.7882 48.714C41.9189 48.5553 42.0635 48.4153 42.2222 48.294C42.3809 48.1727 42.5535 48.0793 42.7402 48.014C42.9269 47.9393 43.1322 47.902 43.3562 47.902C43.5615 47.902 43.7762 47.9347 44.0002 48L43.7202 48.924ZM50.4283 52.242C50.3536 52.5873 50.3023 52.9373 50.2743 53.292C50.2463 53.6467 50.2323 53.978 50.2323 54.286C50.2323 54.426 50.2323 54.5613 50.2323 54.692C50.2323 54.8133 50.2416 54.9253 50.2603 55.028H49.4763L49.2803 53.81H49.2243C49.1123 53.9687 48.9723 54.132 48.8043 54.3C48.6456 54.4587 48.4683 54.6033 48.2723 54.734C48.0763 54.8647 47.8663 54.9673 47.6423 55.042C47.4183 55.126 47.1803 55.168 46.9283 55.168C45.8176 55.168 45.2623 54.4447 45.2623 52.998C45.2623 52.4007 45.3369 51.794 45.4863 51.178C45.6449 50.562 45.8829 50.0067 46.2003 49.512C46.5269 49.0173 46.9423 48.6113 47.4463 48.294C47.9596 47.9767 48.5756 47.818 49.2943 47.818C49.5556 47.818 49.8729 47.8507 50.2463 47.916C50.6289 47.972 50.9836 48.0513 51.3103 48.154L50.4283 52.242ZM47.2503 54.272C47.4743 54.272 47.6889 54.2207 47.8943 54.118C48.0996 54.006 48.2909 53.8707 48.4683 53.712C48.6549 53.5533 48.8183 53.3853 48.9583 53.208C49.0983 53.0213 49.2103 52.8487 49.2943 52.69L50.0783 48.91C49.7983 48.7793 49.4436 48.714 49.0143 48.714C48.5849 48.714 48.2069 48.84 47.8803 49.092C47.5536 49.344 47.2783 49.6753 47.0543 50.086C46.8303 50.4873 46.6623 50.9447 46.5503 51.458C46.4383 51.9713 46.3823 52.4847 46.3823 52.998C46.3823 53.3527 46.4523 53.656 46.5923 53.908C46.7323 54.1507 46.9516 54.272 47.2503 54.272ZM57.9225 48.924C57.8385 48.9053 57.7499 48.8913 57.6565 48.882C57.5725 48.8727 57.4932 48.868 57.4185 48.868C56.9425 48.868 56.5319 49.0173 56.1865 49.316C55.8412 49.6147 55.5705 49.9787 55.3745 50.408L54.4085 55H53.3585L54.8425 48H55.5705V49.204H55.6265C55.7385 49.0267 55.8599 48.8633 55.9905 48.714C56.1212 48.5553 56.2659 48.4153 56.4245 48.294C56.5832 48.1727 56.7559 48.0793 56.9425 48.014C57.1292 47.9393 57.3345 47.902 57.5585 47.902C57.7639 47.902 57.9785 47.9347 58.2025 48L57.9225 48.924ZM61.5506 52.536L61.6206 53.88H61.6906L62.2226 52.522L64.5466 48H65.6666L62.3626 54.244C62.1199 54.7013 61.8773 55.1447 61.6346 55.574C61.4013 56.0127 61.1586 56.4 60.9066 56.736C60.6546 57.0813 60.3933 57.3567 60.1226 57.562C59.8519 57.7673 59.5719 57.87 59.2826 57.87C59.1239 57.87 58.9839 57.8607 58.8626 57.842C58.7506 57.8233 58.6479 57.7907 58.5546 57.744L58.8906 56.778C58.9933 56.8153 59.1053 56.834 59.2266 56.834C59.4973 56.834 59.7679 56.694 60.0386 56.414C60.3093 56.134 60.6126 55.6627 60.9486 55L59.7446 48H60.8646L61.5506 52.536Z" fill="#023AFF"/>
</svg>
