<svg width="144" height="168" viewBox="0 0 144 168" fill="none" xmlns="http://www.w3.org/2000/svg">
<g clip-path="url(#clip0)">
<path d="M124.112 110.478L12.6151 55.6195H143.265L124.112 110.478Z" fill="#EDC55E"/>
<path d="M15.6699 63.9945L106.896 108.879H0L15.6699 63.9945Z" fill="#EDC55E"/>
<path d="M78.0362 8.31189C61.9527 8.31189 48.9446 21.32 48.9446 37.4036C48.9446 59.2224 78.0362 91.4311 78.0362 91.4311C78.0362 91.4311 107.128 59.2224 107.128 37.4036C107.128 21.32 94.1198 8.31189 78.0362 8.31189ZM78.0362 47.7935C72.301 47.7935 67.6464 43.1388 67.6464 37.4036C67.6464 31.6684 72.301 27.0137 78.0362 27.0137C83.7715 27.0137 88.4262 31.6684 88.4262 37.4036C88.4262 43.1388 83.7715 47.7935 78.0362 47.7935Z" fill="#4DBCEB"/>
<path d="M10.8071 155.238V130.372C10.8071 128.128 11.6001 126.198 13.186 124.582C14.7719 122.936 16.6421 122.113 18.7965 122.113H19.9187C20.2777 122.113 20.577 122.248 20.8163 122.517C21.0557 122.787 21.1754 123.101 21.1754 123.46C21.1754 123.819 21.0557 124.133 20.8163 124.403C20.577 124.642 20.2777 124.762 19.9187 124.762H19.1556C17.6296 124.762 16.3429 125.3 15.2956 126.377C14.2782 127.425 13.7545 128.682 13.7246 130.148V135.13H20.1431C20.4423 135.13 20.6817 135.25 20.8612 135.489C21.0707 135.728 21.1754 135.998 21.1754 136.297C21.1754 136.656 21.0707 136.955 20.8612 137.195C20.6817 137.434 20.4423 137.554 20.1431 137.554H13.7246V155.238C13.7246 155.567 13.575 155.837 13.2758 156.046C12.9765 156.256 12.6175 156.36 12.1985 156.36C11.8095 156.36 11.4804 156.256 11.2111 156.046C10.9418 155.837 10.8071 155.567 10.8071 155.238ZM46.7497 155.193V136.207C46.7497 135.878 46.8844 135.624 47.1537 135.444C47.423 135.235 47.7671 135.13 48.186 135.13C48.5451 135.13 48.8593 135.235 49.1286 135.444C49.3979 135.654 49.5326 135.908 49.5326 136.207V138.272C50.0413 137.314 50.8193 136.506 51.8666 135.848C52.9139 135.19 54.1407 134.861 55.5471 134.861C57.7015 134.861 59.5717 135.684 61.1576 137.329C62.7435 138.975 63.5365 140.95 63.5365 143.254V155.193C63.5365 155.552 63.3869 155.837 63.0877 156.046C62.7884 156.256 62.4443 156.36 62.0553 156.36C61.6962 156.36 61.3671 156.256 61.0679 156.046C60.7686 155.837 60.619 155.552 60.619 155.193V143.254C60.619 141.788 60.0654 140.471 58.9583 139.304C57.8511 138.137 56.5345 137.554 55.0085 137.554C53.6021 137.554 52.3603 138.077 51.2831 139.125C50.2058 140.172 49.6672 141.548 49.6672 143.254V155.193C49.6672 155.493 49.5176 155.762 49.2184 156.001C48.9192 156.241 48.575 156.36 48.186 156.36C47.7671 156.36 47.423 156.241 47.1537 156.001C46.8844 155.762 46.7497 155.493 46.7497 155.193ZM77.9125 149.762V126.108C77.9125 125.809 78.0621 125.555 78.3613 125.345C78.6605 125.136 78.9897 125.031 79.3488 125.031C79.7378 125.031 80.0819 125.136 80.3811 125.345C80.6803 125.555 80.83 125.809 80.83 126.108V135.13H86.62C86.9193 135.13 87.1587 135.25 87.3382 135.489C87.5476 135.728 87.6524 136.013 87.6524 136.342C87.6524 136.671 87.5476 136.955 87.3382 137.195C87.1587 137.434 86.9193 137.554 86.62 137.554H80.83V149.762C80.83 151.228 81.1292 152.261 81.7276 152.859C82.356 153.428 83.4482 153.712 85.0042 153.712H86.261C86.65 153.712 86.9641 153.847 87.2035 154.116C87.4728 154.355 87.6075 154.655 87.6075 155.014C87.6075 155.373 87.4728 155.687 87.2035 155.956C86.9641 156.226 86.65 156.36 86.261 156.36H85.0042C80.2764 156.36 77.9125 154.161 77.9125 149.762ZM91.3272 155.193V136.207C91.3272 135.908 91.4619 135.654 91.7312 135.444C92.0005 135.235 92.3446 135.13 92.7635 135.13C93.1525 135.13 93.4817 135.235 93.751 135.444C94.0203 135.654 94.1549 135.908 94.1549 136.207V138.407C94.6935 137.419 95.4865 136.581 96.5338 135.893C97.5811 135.205 98.793 134.861 100.17 134.861H101.741C102.04 134.861 102.309 134.995 102.549 135.265C102.788 135.534 102.908 135.848 102.908 136.207C102.908 136.566 102.788 136.88 102.549 137.15C102.309 137.419 102.04 137.554 101.741 137.554H100.17C98.6134 137.554 97.237 138.167 96.0401 139.394C94.8432 140.591 94.2447 142.162 94.2447 144.107V155.193C94.2447 155.493 94.0951 155.762 93.7958 156.001C93.5265 156.241 93.1824 156.36 92.7635 156.36C92.3745 156.36 92.0304 156.241 91.7312 156.001C91.4619 155.762 91.3272 155.493 91.3272 155.193ZM114.777 165.651V136.207C114.777 135.908 114.912 135.654 115.181 135.444C115.451 135.235 115.795 135.13 116.214 135.13C116.603 135.13 116.932 135.235 117.201 135.444C117.47 135.654 117.605 135.908 117.605 136.207V138.272C118.144 137.314 118.937 136.506 119.984 135.848C121.031 135.19 122.243 134.861 123.62 134.861C125.834 134.861 127.734 135.684 129.32 137.329C130.906 138.975 131.699 140.95 131.699 143.254V148.146C131.699 150.391 130.891 152.381 129.275 154.116C127.689 155.822 125.849 156.674 123.754 156.674C122.438 156.674 121.226 156.345 120.119 155.687C119.011 154.999 118.203 154.176 117.695 153.218V165.651C117.695 165.921 117.545 166.175 117.246 166.414C116.977 166.654 116.633 166.773 116.214 166.773C115.825 166.773 115.48 166.654 115.181 166.414C114.912 166.175 114.777 165.921 114.777 165.651ZM117.695 149.538C117.695 150.346 118.248 151.288 119.356 152.366C120.493 153.443 121.779 153.981 123.216 153.981C124.682 153.981 125.968 153.383 127.076 152.186C128.213 150.989 128.781 149.643 128.781 148.146V143.254C128.781 141.788 128.213 140.471 127.076 139.304C125.968 138.137 124.652 137.554 123.126 137.554C121.689 137.554 120.418 138.077 119.311 139.125C118.233 140.172 117.695 141.548 117.695 143.254V149.538Z" fill="#4DBCEB"/>
<path d="M24.2584 148.236V136.252C24.2584 135.983 24.3931 135.728 24.6624 135.489C24.9616 135.25 25.3207 135.13 25.7396 135.13C26.0987 135.13 26.4278 135.25 26.7271 135.489C27.0263 135.728 27.1759 135.983 27.1759 136.252V148.236C27.1759 149.732 27.7295 151.064 28.8366 152.231C29.9438 153.398 31.2604 153.981 32.7865 153.981C34.3125 153.981 35.6291 153.398 36.7363 152.231C37.8434 151.064 38.397 149.732 38.397 148.236V136.207C38.397 135.908 38.5466 135.654 38.8458 135.444C39.1451 135.235 39.4892 135.13 39.8782 135.13C40.2672 135.13 40.5963 135.235 40.8656 135.444C41.1649 135.654 41.3145 135.908 41.3145 136.207V148.236C41.3145 150.48 40.4617 152.455 38.7561 154.161C37.0804 155.837 35.0905 156.674 32.7865 156.674C30.4525 156.674 28.4476 155.837 26.7719 154.161C25.0963 152.455 24.2584 150.48 24.2584 148.236ZM106.186 128.308C105.797 127.919 105.603 127.47 105.603 126.961C105.603 126.452 105.797 126.018 106.186 125.659C106.575 125.3 107.054 125.121 107.623 125.121C108.161 125.121 108.61 125.3 108.969 125.659C109.358 126.018 109.553 126.452 109.553 126.961C109.553 127.47 109.358 127.919 108.969 128.308C108.61 128.667 108.161 128.846 107.623 128.846C107.054 128.846 106.575 128.667 106.186 128.308ZM106.186 155.193V136.207C106.186 135.908 106.321 135.654 106.59 135.444C106.86 135.235 107.204 135.13 107.623 135.13C108.042 135.13 108.386 135.235 108.655 135.444C108.954 135.654 109.104 135.908 109.104 136.207V155.193C109.104 155.492 108.954 155.762 108.655 156.001C108.356 156.241 108.012 156.36 107.623 156.36C107.234 156.36 106.89 156.241 106.59 156.001C106.321 155.762 106.186 155.492 106.186 155.193Z" fill="#EDC55E"/>
</g>
<defs>
<clipPath id="clip0">
<rect width="143.63" height="167.568" fill="white"/>
</clipPath>
</defs>
</svg>
