<svg width="81" height="32" viewBox="0 0 81 32" fill="none" xmlns="http://www.w3.org/2000/svg">
<path d="M0.591641 -1.90735e-06H3.91164V28H0.591641V-1.90735e-06ZM11.7503 19H13.0823L13.4603 17.218L14.9003 16.804L14.4323 19H16.7903L16.5203 20.152H14.1803L13.0463 25.588C13.0223 25.732 12.9983 25.864 12.9743 25.984C12.9623 26.104 12.9563 26.212 12.9563 26.308C12.9563 26.596 13.0223 26.794 13.1543 26.902C13.2863 27.01 13.4843 27.064 13.7483 27.064C14.0363 27.064 14.3003 27.028 14.5403 26.956C14.7803 26.884 15.0203 26.776 15.2603 26.632V27.73C15.0083 27.874 14.6843 27.988 14.2883 28.072C13.8923 28.168 13.5143 28.216 13.1543 28.216C12.0623 28.216 11.5163 27.718 11.5163 26.722C11.5163 26.518 11.5463 26.266 11.6063 25.966L12.8303 20.152H11.4803L11.7503 19ZM20.7948 19H22.1448L20.2368 28H18.8868L20.7948 19ZM21.0828 16.246C21.0828 15.97 21.1728 15.736 21.3528 15.544C21.5448 15.352 21.7788 15.256 22.0548 15.256C22.3308 15.256 22.5648 15.352 22.7568 15.544C22.9488 15.736 23.0448 15.97 23.0448 16.246C23.0448 16.522 22.9488 16.756 22.7568 16.948C22.5648 17.128 22.3308 17.218 22.0548 17.218C21.7788 17.218 21.5448 17.128 21.3528 16.948C21.1728 16.756 21.0828 16.522 21.0828 16.246ZM30.331 28L31.537 22.312C31.585 22.096 31.627 21.886 31.663 21.682C31.699 21.466 31.717 21.274 31.717 21.106C31.717 20.758 31.633 20.476 31.465 20.26C31.309 20.044 31.009 19.936 30.565 19.936C30.253 19.936 29.947 20.008 29.647 20.152C29.347 20.296 29.065 20.482 28.801 20.71C28.537 20.926 28.297 21.172 28.081 21.448C27.877 21.712 27.703 21.976 27.559 22.24L26.371 28H25.021L26.929 19H27.865L27.793 20.548H27.865C28.021 20.356 28.207 20.158 28.423 19.954C28.639 19.738 28.879 19.546 29.143 19.378C29.419 19.21 29.725 19.072 30.061 18.964C30.397 18.844 30.769 18.784 31.177 18.784C31.777 18.784 32.251 18.928 32.599 19.216C32.947 19.504 33.121 20.008 33.121 20.728C33.121 21.088 33.067 21.52 32.959 22.024L31.681 28H30.331ZM42.5793 27.118C42.1593 27.478 41.6613 27.754 41.0853 27.946C40.5213 28.126 39.9513 28.216 39.3753 28.216C38.4153 28.216 37.6893 27.94 37.1973 27.388C36.7173 26.836 36.4773 26.068 36.4773 25.084C36.4773 24.1 36.6153 23.218 36.8913 22.438C37.1673 21.658 37.5273 20.998 37.9713 20.458C38.4273 19.918 38.9373 19.504 39.5013 19.216C40.0773 18.928 40.6653 18.784 41.2653 18.784C41.6973 18.784 42.0693 18.844 42.3813 18.964C42.7053 19.084 42.9693 19.246 43.1733 19.45C43.3773 19.642 43.5273 19.87 43.6233 20.134C43.7193 20.386 43.7673 20.656 43.7673 20.944C43.7673 21.796 43.3533 22.468 42.5253 22.96C41.6973 23.44 40.4913 23.68 38.9073 23.68C38.7633 23.68 38.6133 23.68 38.4573 23.68C38.3013 23.668 38.1393 23.656 37.9713 23.644C37.9233 23.872 37.8873 24.088 37.8633 24.292C37.8393 24.496 37.8273 24.676 37.8273 24.832C37.8273 25.492 37.9773 26.032 38.2773 26.452C38.5773 26.86 39.0453 27.064 39.6813 27.064C40.2093 27.064 40.6893 26.98 41.1213 26.812C41.5653 26.632 41.9073 26.446 42.1473 26.254L42.5793 27.118ZM41.0493 19.936C40.3893 19.936 39.8133 20.164 39.3213 20.62C38.8413 21.064 38.4753 21.736 38.2233 22.636C38.6793 22.636 39.1533 22.624 39.6453 22.6C40.1373 22.576 40.5813 22.516 40.9773 22.42C41.3853 22.312 41.7213 22.15 41.9853 21.934C42.2493 21.706 42.3813 21.394 42.3813 20.998C42.3813 20.878 42.3573 20.758 42.3093 20.638C42.2733 20.506 42.2073 20.392 42.1113 20.296C42.0153 20.188 41.8773 20.104 41.6973 20.044C41.5293 19.972 41.3133 19.936 41.0493 19.936ZM52.2254 20.188C52.1174 20.164 52.0034 20.146 51.8834 20.134C51.7754 20.122 51.6734 20.116 51.5774 20.116C50.9654 20.116 50.4374 20.308 49.9934 20.692C49.5494 21.076 49.2014 21.544 48.9494 22.096L47.7074 28H46.3574L48.2654 19H49.2014V20.548H49.2734C49.4174 20.32 49.5734 20.11 49.7414 19.918C49.9094 19.714 50.0954 19.534 50.2994 19.378C50.5034 19.222 50.7254 19.102 50.9654 19.018C51.2054 18.922 51.4694 18.874 51.7574 18.874C52.0214 18.874 52.2974 18.916 52.5854 19L52.2254 20.188ZM60.85 24.454C60.754 24.898 60.688 25.348 60.652 25.804C60.616 26.26 60.598 26.686 60.598 27.082C60.598 27.262 60.598 27.436 60.598 27.604C60.598 27.76 60.61 27.904 60.634 28.036H59.626L59.374 26.47H59.302C59.158 26.674 58.978 26.884 58.762 27.1C58.558 27.304 58.33 27.49 58.078 27.658C57.826 27.826 57.556 27.958 57.268 28.054C56.98 28.162 56.674 28.216 56.35 28.216C54.922 28.216 54.208 27.286 54.208 25.426C54.208 24.658 54.304 23.878 54.496 23.086C54.7 22.294 55.006 21.58 55.414 20.944C55.834 20.308 56.368 19.786 57.016 19.378C57.676 18.97 58.468 18.766 59.392 18.766C59.728 18.766 60.136 18.808 60.616 18.892C61.108 18.964 61.564 19.066 61.984 19.198L60.85 24.454ZM56.764 27.064C57.052 27.064 57.328 26.998 57.592 26.866C57.856 26.722 58.102 26.548 58.33 26.344C58.57 26.14 58.78 25.924 58.96 25.696C59.14 25.456 59.284 25.234 59.392 25.03L60.4 20.17C60.04 20.002 59.584 19.918 59.032 19.918C58.48 19.918 57.994 20.08 57.574 20.404C57.154 20.728 56.8 21.154 56.512 21.682C56.224 22.198 56.008 22.786 55.864 23.446C55.72 24.106 55.648 24.766 55.648 25.426C55.648 25.882 55.738 26.272 55.918 26.596C56.098 26.908 56.38 27.064 56.764 27.064ZM70.4855 20.188C70.3775 20.164 70.2635 20.146 70.1435 20.134C70.0355 20.122 69.9335 20.116 69.8375 20.116C69.2255 20.116 68.6975 20.308 68.2535 20.692C67.8095 21.076 67.4615 21.544 67.2095 22.096L65.9675 28H64.6175L66.5255 19H67.4615V20.548H67.5335C67.6775 20.32 67.8335 20.11 68.0015 19.918C68.1695 19.714 68.3555 19.534 68.5595 19.378C68.7635 19.222 68.9855 19.102 69.2255 19.018C69.4655 18.922 69.7295 18.874 70.0175 18.874C70.2815 18.874 70.5575 18.916 70.8455 19L70.4855 20.188ZM75.1502 24.832L75.2402 26.56H75.3302L76.0142 24.814L79.0022 19H80.4422L76.1942 27.028C75.8822 27.616 75.5702 28.186 75.2582 28.738C74.9582 29.302 74.6462 29.8 74.3222 30.232C73.9982 30.676 73.6622 31.03 73.3142 31.294C72.9662 31.558 72.6062 31.69 72.2342 31.69C72.0302 31.69 71.8502 31.678 71.6942 31.654C71.5502 31.63 71.4182 31.588 71.2982 31.528L71.7302 30.286C71.8622 30.334 72.0062 30.358 72.1622 30.358C72.5102 30.358 72.8582 30.178 73.2062 29.818C73.5542 29.458 73.9442 28.852 74.3762 28L72.8282 19H74.2682L75.1502 24.832Z" fill="#023AFF"/>
</svg>
