<svg width="144" height="168" viewBox="0 0 144 168" fill="none" xmlns="http://www.w3.org/2000/svg">
<path d="M124.432 110.763L12.6476 55.7627L143.634 55.7627L124.432 110.763Z" fill="#FFB802"/>
<path d="M15.7103 64.1593L107.171 109.159H0L15.7103 64.1593Z" fill="#FFB802"/>
<path d="M78.2372 8.33337C62.1122 8.33337 49.0706 21.375 49.0706 37.5C49.0706 59.375 78.2372 91.6667 78.2372 91.6667C78.2372 91.6667 107.404 59.375 107.404 37.5C107.404 21.375 94.3622 8.33337 78.2372 8.33337ZM78.2372 47.9167C72.4872 47.9167 67.8206 43.25 67.8206 37.5C67.8206 31.75 72.4872 27.0834 78.2372 27.0834C83.9872 27.0834 88.6539 31.75 88.6539 37.5C88.6539 43.25 83.9872 47.9167 78.2372 47.9167Z" fill="#023AFF"/>
<path d="M10.835 155.638V130.708C10.835 128.458 11.63 126.523 13.22 124.903C14.81 123.253 16.685 122.428 18.845 122.428H19.97C20.33 122.428 20.63 122.563 20.87 122.833C21.11 123.103 21.23 123.418 21.23 123.778C21.23 124.138 21.11 124.453 20.87 124.723C20.63 124.963 20.33 125.083 19.97 125.083H19.205C17.675 125.083 16.385 125.623 15.335 126.703C14.315 127.753 13.79 129.013 13.76 130.483V135.478H20.195C20.495 135.478 20.735 135.598 20.915 135.838C21.125 136.078 21.23 136.348 21.23 136.648C21.23 137.008 21.125 137.308 20.915 137.548C20.735 137.788 20.495 137.908 20.195 137.908H13.76V155.638C13.76 155.968 13.61 156.238 13.31 156.448C13.01 156.658 12.65 156.763 12.23 156.763C11.84 156.763 11.51 156.658 11.24 156.448C10.97 156.238 10.835 155.968 10.835 155.638ZM46.8702 155.593V136.558C46.8702 136.228 47.0052 135.973 47.2752 135.793C47.5452 135.583 47.8902 135.478 48.3102 135.478C48.6702 135.478 48.9852 135.583 49.2552 135.793C49.5252 136.003 49.6602 136.258 49.6602 136.558V138.628C50.1702 137.668 50.9502 136.858 52.0002 136.198C53.0502 135.538 54.2802 135.208 55.6902 135.208C57.8502 135.208 59.7252 136.033 61.3152 137.683C62.9052 139.333 63.7002 141.313 63.7002 143.623V155.593C63.7002 155.953 63.5502 156.238 63.2502 156.448C62.9502 156.658 62.6052 156.763 62.2152 156.763C61.8552 156.763 61.5252 156.658 61.2252 156.448C60.9252 156.238 60.7752 155.953 60.7752 155.593V143.623C60.7752 142.153 60.2202 140.833 59.1102 139.663C58.0002 138.493 56.6802 137.908 55.1502 137.908C53.7402 137.908 52.4952 138.433 51.4152 139.483C50.3352 140.533 49.7952 141.913 49.7952 143.623V155.593C49.7952 155.893 49.6452 156.163 49.3452 156.403C49.0452 156.643 48.7002 156.763 48.3102 156.763C47.8902 156.763 47.5452 156.643 47.2752 156.403C47.0052 156.163 46.8702 155.893 46.8702 155.593ZM78.1132 150.148V126.433C78.1132 126.133 78.2632 125.878 78.5632 125.668C78.8632 125.458 79.1932 125.353 79.5532 125.353C79.9432 125.353 80.2882 125.458 80.5882 125.668C80.8882 125.878 81.0382 126.133 81.0382 126.433V135.478H86.8432C87.1432 135.478 87.3832 135.598 87.5632 135.838C87.7732 136.078 87.8782 136.363 87.8782 136.693C87.8782 137.023 87.7732 137.308 87.5632 137.548C87.3832 137.788 87.1432 137.908 86.8432 137.908H81.0382V150.148C81.0382 151.618 81.3382 152.653 81.9382 153.253C82.5682 153.823 83.6632 154.108 85.2232 154.108H86.4832C86.8732 154.108 87.1882 154.243 87.4282 154.513C87.6982 154.753 87.8332 155.053 87.8332 155.413C87.8332 155.773 87.6982 156.088 87.4282 156.358C87.1882 156.628 86.8732 156.763 86.4832 156.763H85.2232C80.4832 156.763 78.1132 154.558 78.1132 150.148ZM91.5625 155.593V136.558C91.5625 136.258 91.6975 136.003 91.9675 135.793C92.2375 135.583 92.5825 135.478 93.0025 135.478C93.3925 135.478 93.7225 135.583 93.9925 135.793C94.2625 136.003 94.3975 136.258 94.3975 136.558V138.763C94.9375 137.773 95.7325 136.933 96.7825 136.243C97.8325 135.553 99.0475 135.208 100.428 135.208H102.003C102.303 135.208 102.573 135.343 102.813 135.613C103.053 135.883 103.173 136.198 103.173 136.558C103.173 136.918 103.053 137.233 102.813 137.503C102.573 137.773 102.303 137.908 102.003 137.908H100.428C98.8675 137.908 97.4875 138.523 96.2875 139.753C95.0875 140.953 94.4875 142.528 94.4875 144.478V155.593C94.4875 155.893 94.3375 156.163 94.0375 156.403C93.7675 156.643 93.4225 156.763 93.0025 156.763C92.6125 156.763 92.2675 156.643 91.9675 156.403C91.6975 156.163 91.5625 155.893 91.5625 155.593ZM115.073 166.078V136.558C115.073 136.258 115.208 136.003 115.478 135.793C115.748 135.583 116.093 135.478 116.513 135.478C116.903 135.478 117.233 135.583 117.503 135.793C117.773 136.003 117.908 136.258 117.908 136.558V138.628C118.448 137.668 119.243 136.858 120.293 136.198C121.343 135.538 122.558 135.208 123.938 135.208C126.158 135.208 128.063 136.033 129.653 137.683C131.243 139.333 132.038 141.313 132.038 143.623V148.528C132.038 150.778 131.228 152.773 129.608 154.513C128.018 156.223 126.173 157.078 124.073 157.078C122.753 157.078 121.538 156.748 120.428 156.088C119.318 155.398 118.508 154.573 117.998 153.613V166.078C117.998 166.348 117.848 166.603 117.548 166.843C117.278 167.083 116.933 167.203 116.513 167.203C116.123 167.203 115.778 167.083 115.478 166.843C115.208 166.603 115.073 166.348 115.073 166.078ZM117.998 149.923C117.998 150.733 118.553 151.678 119.663 152.758C120.803 153.838 122.093 154.378 123.533 154.378C125.003 154.378 126.293 153.778 127.403 152.578C128.543 151.378 129.113 150.028 129.113 148.528V143.623C129.113 142.153 128.543 140.833 127.403 139.663C126.293 138.493 124.973 137.908 123.443 137.908C122.003 137.908 120.728 138.433 119.618 139.483C118.538 140.533 117.998 141.913 117.998 143.623V149.923Z" fill="#6786F3"/>
<path d="M24.3209 148.618V136.603C24.3209 136.333 24.4559 136.078 24.7259 135.838C25.0259 135.598 25.3859 135.478 25.8059 135.478C26.1659 135.478 26.4959 135.598 26.7959 135.838C27.0959 136.078 27.2459 136.333 27.2459 136.603V148.618C27.2459 150.118 27.8009 151.453 28.9109 152.623C30.0209 153.793 31.3409 154.378 32.8709 154.378C34.4009 154.378 35.7209 153.793 36.8309 152.623C37.9409 151.453 38.4959 150.118 38.4959 148.618V136.558C38.4959 136.258 38.6459 136.003 38.9459 135.793C39.2459 135.583 39.5909 135.478 39.9809 135.478C40.3709 135.478 40.7009 135.583 40.9709 135.793C41.2709 136.003 41.4209 136.258 41.4209 136.558V148.618C41.4209 150.868 40.5659 152.848 38.8559 154.558C37.1759 156.238 35.1809 157.078 32.8709 157.078C30.5309 157.078 28.5209 156.238 26.8409 154.558C25.1609 152.848 24.3209 150.868 24.3209 148.618ZM106.46 128.638C106.07 128.248 105.875 127.798 105.875 127.288C105.875 126.778 106.07 126.343 106.46 125.983C106.85 125.623 107.33 125.443 107.9 125.443C108.44 125.443 108.89 125.623 109.25 125.983C109.64 126.343 109.835 126.778 109.835 127.288C109.835 127.798 109.64 128.248 109.25 128.638C108.89 128.998 108.44 129.178 107.9 129.178C107.33 129.178 106.85 128.998 106.46 128.638ZM106.46 155.593V136.558C106.46 136.258 106.595 136.003 106.865 135.793C107.135 135.583 107.48 135.478 107.9 135.478C108.32 135.478 108.665 135.583 108.935 135.793C109.235 136.003 109.385 136.258 109.385 136.558V155.593C109.385 155.893 109.235 156.163 108.935 156.403C108.635 156.643 108.29 156.763 107.9 156.763C107.51 156.763 107.165 156.643 106.865 156.403C106.595 156.163 106.46 155.893 106.46 155.593Z" fill="#F4B104"/>
</svg>
