<svg width="40" height="50" viewBox="0 0 40 50" fill="none" xmlns="http://www.w3.org/2000/svg">
<g clip-path="url(#clip0)">
<path d="M38.1097 13.0078C36.352 7.32422 31.723 2.69521 26.0394 0.9375C24.0472 0.322168 21.9964 0 20.0042 0C15.932 0 12.0063 1.25977 8.72505 3.7208C3.86157 7.29492 0.961278 13.0078 0.961278 19.043C0.961278 23.203 2.27964 27.1583 4.76987 30.4688L20.0042 50L35.2386 30.4688C38.9592 25.4883 40.014 19.131 38.1097 13.0078ZM20.0042 29.2969C14.35 29.2969 9.75034 24.6973 9.75034 19.043C9.75034 13.3887 14.35 8.78906 20.0042 8.78906C25.6585 8.78906 30.2582 13.3887 30.2582 19.043C30.2582 24.6973 25.6585 29.2969 20.0042 29.2969Z" fill="#FFE08F"/>
<path d="M35.2386 30.4688L20.0042 50V29.2969C25.6585 29.2969 30.2582 24.6973 30.2582 19.043C30.2582 13.3887 25.6585 8.78906 20.0042 8.78906V0C21.9964 0 24.0472 0.322266 26.0394 0.9375C31.723 2.69521 36.352 7.32422 38.1097 13.0078C40.014 19.131 38.9592 25.4883 35.2386 30.4688Z" fill="#FFEEC2"/>
<path d="M18.8281 15.8125C18.7917 15.8125 18.7552 15.8151 18.7188 15.8203C18.6875 15.8203 18.651 15.8203 18.6094 15.8203V19.1797H18.7188C19.2135 19.1797 19.6146 19.1302 19.9219 19.0312C20.2292 18.9323 20.4661 18.8021 20.6328 18.6406C20.8047 18.474 20.9193 18.2839 20.9766 18.0703C21.0391 17.8568 21.0703 17.638 21.0703 17.4141C21.0703 17.1536 21.0339 16.9245 20.9609 16.7266C20.888 16.5286 20.763 16.362 20.5859 16.2266C20.4141 16.0911 20.1849 15.9896 19.8984 15.9219C19.612 15.849 19.2552 15.8125 18.8281 15.8125ZM19.5859 20.0391C19.3516 20.0391 19.1615 20.0495 19.0156 20.0703C18.875 20.0911 18.7396 20.1146 18.6094 20.1406V23.9531C18.6094 23.9844 18.6172 24.0182 18.6328 24.0547C18.7786 24.1172 18.9297 24.1615 19.0859 24.1875C19.2422 24.2083 19.4271 24.2188 19.6406 24.2188C20.3906 24.2188 20.9479 24.0521 21.3125 23.7188C21.6823 23.3802 21.8672 22.9167 21.8672 22.3281C21.8672 22.0417 21.8333 21.763 21.7656 21.4922C21.6979 21.2161 21.5781 20.9714 21.4062 20.7578C21.2344 20.5391 21 20.3646 20.7031 20.2344C20.4115 20.1042 20.0391 20.0391 19.5859 20.0391ZM24.1641 22.2188C24.1641 22.6615 24.0703 23.0625 23.8828 23.4219C23.6953 23.776 23.4219 24.0781 23.0625 24.3281C22.7031 24.5781 22.263 24.7708 21.7422 24.9062C21.2214 25.0417 20.6302 25.1094 19.9688 25.1094C19.8542 25.1094 19.7083 25.1068 19.5312 25.1016C19.3594 25.1016 19.1693 25.099 18.9609 25.0938C18.7578 25.0885 18.5417 25.0833 18.3125 25.0781C18.0885 25.0729 17.8672 25.0651 17.6484 25.0547C17.1328 25.0391 16.5885 25.0208 16.0156 25H15.3672V24.3516C15.7214 24.2786 15.9844 24.2005 16.1562 24.1172C16.3333 24.0286 16.4219 23.9479 16.4219 23.875V15.9688C16.2188 15.9896 16.026 16.013 15.8438 16.0391C15.6667 16.0599 15.5078 16.0833 15.3672 16.1094L15.2578 15.3906C15.4974 15.3333 15.7839 15.2786 16.1172 15.2266C16.4557 15.1693 16.8099 15.1198 17.1797 15.0781C17.5495 15.0312 17.9219 14.9948 18.2969 14.9688C18.6719 14.9375 19.0208 14.9219 19.3438 14.9219C19.9635 14.9219 20.5182 14.9714 21.0078 15.0703C21.4974 15.1641 21.9115 15.3021 22.25 15.4844C22.5885 15.6667 22.8464 15.888 23.0234 16.1484C23.2057 16.4089 23.2969 16.7031 23.2969 17.0312C23.2969 17.5938 23.1406 18.0755 22.8281 18.4766C22.5208 18.8776 22.0521 19.1693 21.4219 19.3516C21.8333 19.4141 22.2057 19.5312 22.5391 19.7031C22.8776 19.875 23.1667 20.0885 23.4062 20.3438C23.6458 20.5938 23.8307 20.8802 23.9609 21.2031C24.0964 21.5208 24.1641 21.8594 24.1641 22.2188Z" fill="#8F6700"/>
</g>
<defs>
<clipPath id="clip0">
<rect width="40" height="50" fill="white"/>
</clipPath>
</defs>
</svg>
