<svg width="40" height="50" viewBox="0 0 40 50" fill="none" xmlns="http://www.w3.org/2000/svg">
<g clip-path="url(#clip0)">
<path d="M38.1097 13.0078C36.352 7.32422 31.723 2.69521 26.0394 0.9375C24.0472 0.322168 21.9964 0 20.0042 0C15.932 0 12.0063 1.25977 8.72505 3.7208C3.86157 7.29492 0.961277 13.0078 0.961277 19.043C0.961277 23.203 2.27964 27.1583 4.76987 30.4688L20.0042 50L35.2386 30.4688C38.9592 25.4883 40.014 19.131 38.1097 13.0078ZM20.0042 29.2969C14.3499 29.2969 9.75034 24.6973 9.75034 19.043C9.75034 13.3887 14.3499 8.78906 20.0042 8.78906C25.6585 8.78906 30.2582 13.3887 30.2582 19.043C30.2582 24.6973 25.6585 29.2969 20.0042 29.2969Z" fill="#C10101"/>
<path d="M35.2386 30.4688L20.0042 50V29.2969C25.6585 29.2969 30.2582 24.6973 30.2582 19.043C30.2582 13.3887 25.6585 8.78906 20.0042 8.78906V0C21.9964 0 24.0472 0.322266 26.0394 0.9375C31.723 2.69521 36.352 7.32422 38.1097 13.0078C40.014 19.131 38.9592 25.4883 35.2386 30.4688Z" fill="#F30202"/>
<circle cx="20" cy="19" r="11" fill="#FFFCF3"/>
<path d="M23.9766 23.3516C23.3099 24.0234 22.6484 24.5052 21.9922 24.7969C21.3411 25.0885 20.7083 25.2344 20.0938 25.2344C19.5521 25.2344 19.026 25.125 18.5156 24.9062C18.0104 24.6875 17.5599 24.3724 17.1641 23.9609C16.7734 23.5495 16.4583 23.0469 16.2188 22.4531C15.9844 21.8542 15.8672 21.1771 15.8672 20.4219C15.8672 19.5885 15.9948 18.8333 16.25 18.1562C16.5104 17.4792 16.8646 16.901 17.3125 16.4219C17.7656 15.9375 18.2995 15.5651 18.9141 15.3047C19.5286 15.0443 20.1953 14.9167 20.9141 14.9219C21.1953 14.9219 21.4792 14.9427 21.7656 14.9844C22.0521 15.026 22.3255 15.0833 22.5859 15.1562C22.8464 15.224 23.0833 15.3047 23.2969 15.3984C23.5156 15.4922 23.6927 15.5938 23.8281 15.7031C23.849 15.7188 23.8464 15.7708 23.8203 15.8594C23.7995 15.9479 23.763 16.0573 23.7109 16.1875C23.6589 16.3125 23.599 16.4505 23.5312 16.6016C23.4635 16.7474 23.3932 16.888 23.3203 17.0234C23.2526 17.1589 23.1875 17.2786 23.125 17.3828C23.0625 17.487 23.0104 17.5599 22.9688 17.6016L22.3828 17.4766C22.1224 16.9505 21.8229 16.5755 21.4844 16.3516C21.151 16.1224 20.7943 16.0104 20.4141 16.0156C20.1484 16.0156 19.8776 16.0781 19.6016 16.2031C19.3255 16.3281 19.0755 16.5469 18.8516 16.8594C18.6276 17.1719 18.4453 17.5938 18.3047 18.125C18.1641 18.651 18.0938 19.3203 18.0938 20.1328C18.0938 20.7891 18.1771 21.3516 18.3438 21.8203C18.5104 22.2839 18.7266 22.6641 18.9922 22.9609C19.2578 23.2578 19.5573 23.4766 19.8906 23.6172C20.224 23.7578 20.5573 23.8281 20.8906 23.8281C21.0312 23.8281 21.1979 23.8151 21.3906 23.7891C21.5833 23.7578 21.7917 23.7031 22.0156 23.625C22.2448 23.5469 22.487 23.4401 22.7422 23.3047C23.0026 23.1641 23.2656 22.9844 23.5312 22.7656C23.5573 22.7865 23.5911 22.8255 23.6328 22.8828C23.6797 22.9401 23.724 23.0026 23.7656 23.0703C23.8125 23.1328 23.8542 23.1927 23.8906 23.25C23.9323 23.3021 23.9609 23.3359 23.9766 23.3516Z" fill="#900101"/>
</g>
<defs>
<clipPath id="clip0">
<rect width="40" height="50" fill="white"/>
</clipPath>
</defs>
</svg>
