<svg width="40" height="50" viewBox="0 0 40 50" fill="none" xmlns="http://www.w3.org/2000/svg">
<g clip-path="url(#clip0)">
<path d="M38.1097 13.0078C36.352 7.32422 31.723 2.69521 26.0394 0.9375C24.0472 0.322168 21.9964 0 20.0042 0C15.932 0 12.0063 1.25977 8.72505 3.7208C3.86157 7.29492 0.961281 13.0078 0.961281 19.043C0.961281 23.203 2.27964 27.1583 4.76987 30.4688L20.0042 50L35.2386 30.4688C38.9592 25.4883 40.014 19.131 38.1097 13.0078ZM20.0042 29.2969C14.35 29.2969 9.75034 24.6973 9.75034 19.043C9.75034 13.3887 14.35 8.78906 20.0042 8.78906C25.6585 8.78906 30.2582 13.3887 30.2582 19.043C30.2582 24.6973 25.6585 29.2969 20.0042 29.2969Z" fill="#C28C00"/>
<path d="M35.2386 30.4688L20.0042 50V29.2969C25.6585 29.2969 30.2581 24.6973 30.2581 19.043C30.2581 13.3887 25.6585 8.78906 20.0042 8.78906V0C21.9964 0 24.0472 0.322266 26.0394 0.9375C31.723 2.69521 36.352 7.32422 38.1097 13.0078C40.014 19.131 38.9592 25.4883 35.2386 30.4688Z" fill="#F5B000"/>
<circle cx="20" cy="19" r="11" fill="#FFFCF3"/>
<path d="M25.0781 19.7188C25.0781 20.3698 25.0104 20.9531 24.875 21.4688C24.7448 21.9792 24.5625 22.4323 24.3281 22.8281C24.099 23.2188 23.8281 23.5521 23.5156 23.8281C23.2083 24.099 22.875 24.3229 22.5156 24.5C22.1615 24.6719 21.7917 24.7995 21.4062 24.8828C21.026 24.9609 20.651 25 20.2812 25H15.6016V24.3516C15.9557 24.2786 16.2188 24.2005 16.3906 24.1172C16.5677 24.0286 16.6562 23.9479 16.6562 23.875V16.0391L15.6016 16.1875L15.4922 15.3906C15.7578 15.3281 16.0755 15.2682 16.4453 15.2109C16.8151 15.1536 17.2005 15.1042 17.6016 15.0625C18.0078 15.0156 18.4141 14.9818 18.8203 14.9609C19.2318 14.9349 19.612 14.9219 19.9609 14.9219C20.7839 14.9219 21.513 15.0312 22.1484 15.25C22.7839 15.4635 23.3177 15.776 23.75 16.1875C24.1875 16.599 24.5182 17.1016 24.7422 17.6953C24.9661 18.2891 25.0781 18.9635 25.0781 19.7188ZM19.375 15.8125C19.2917 15.8125 19.2031 15.8151 19.1094 15.8203C19.0208 15.8203 18.9323 15.8229 18.8438 15.8281V23.5156C18.8438 23.6042 18.849 23.6849 18.8594 23.7578C18.8698 23.8307 18.9089 23.8932 18.9766 23.9453C19.0495 23.9974 19.1615 24.0391 19.3125 24.0703C19.4635 24.0964 19.6771 24.1094 19.9531 24.1094C20.2344 24.1094 20.5365 24.0339 20.8594 23.8828C21.1875 23.7318 21.4896 23.4922 21.7656 23.1641C22.0417 22.8359 22.2708 22.4141 22.4531 21.8984C22.6406 21.3828 22.7344 20.7578 22.7344 20.0234C22.7344 18.6328 22.4505 17.5833 21.8828 16.875C21.3151 16.1667 20.4792 15.8125 19.375 15.8125Z" fill="#8F6700"/>
</g>
<defs>
<clipPath id="clip0">
<rect width="40" height="50" fill="white"/>
</clipPath>
</defs>
</svg>
