<svg width="40" height="50" viewBox="0 0 40 50" fill="none" xmlns="http://www.w3.org/2000/svg">
<g clip-path="url(#clip0)">
<path d="M38.1097 13.0078C36.352 7.32422 31.723 2.69521 26.0394 0.9375C24.0472 0.322168 21.9964 0 20.0042 0C15.932 0 12.0063 1.25977 8.72505 3.7208C3.86157 7.29492 0.961277 13.0078 0.961277 19.043C0.961277 23.203 2.27964 27.1583 4.76987 30.4688L20.0042 50L35.2386 30.4688C38.9592 25.4883 40.014 19.131 38.1097 13.0078ZM20.0042 29.2969C14.3499 29.2969 9.75034 24.6973 9.75034 19.043C9.75034 13.3887 14.3499 8.78906 20.0042 8.78906C25.6585 8.78906 30.2582 13.3887 30.2582 19.043C30.2582 24.6973 25.6585 29.2969 20.0042 29.2969Z" fill="#FFC329"/>
<path d="M38.1097 13.0078C36.352 7.32422 31.723 2.69521 26.0394 0.9375C24.0472 0.322168 21.9964 0 20.0042 0C15.932 0 12.0063 1.25977 8.72505 3.7208C3.86157 7.29492 0.961277 13.0078 0.961277 19.043C0.961277 23.203 2.27964 27.1583 4.76987 30.4688L20.0042 50L35.2386 30.4688C38.9592 25.4883 40.014 19.131 38.1097 13.0078ZM20.0042 29.2969C14.3499 29.2969 9.75034 24.6973 9.75034 19.043C9.75034 13.3887 14.3499 8.78906 20.0042 8.78906C25.6585 8.78906 30.2582 13.3887 30.2582 19.043C30.2582 24.6973 25.6585 29.2969 20.0042 29.2969Z" fill="#FFC329"/>
<path d="M35.2386 30.4688L20.0042 50V29.2969C25.6585 29.2969 30.2582 24.6973 30.2582 19.043C30.2582 13.3887 25.6585 8.78906 20.0042 8.78906V0C21.9964 0 24.0472 0.322266 26.0394 0.9375C31.723 2.69521 36.352 7.32422 38.1097 13.0078C40.014 19.131 38.9592 25.4883 35.2386 30.4688Z" fill="#FFD15C"/>
<circle cx="20" cy="19" r="11" fill="#FFFCF3"/>
<path d="M24.4922 22.4688C24.4714 22.6927 24.4453 22.9375 24.4141 23.2031C24.388 23.4635 24.3594 23.7161 24.3281 23.9609C24.3021 24.2005 24.2734 24.4141 24.2422 24.6016C24.2161 24.7891 24.1927 24.9219 24.1719 25H16.6484V24.3516C17.0026 24.2786 17.2656 24.2005 17.4375 24.1172C17.6146 24.0286 17.7031 23.9479 17.7031 23.875V16.2891C17.7031 16.2266 17.6198 16.1484 17.4531 16.0547C17.2917 15.9609 17.0234 15.8776 16.6484 15.8047V15.1562H20.9453V15.8047C20.5911 15.8776 20.3255 15.9583 20.1484 16.0469C19.9766 16.1354 19.8906 16.2161 19.8906 16.2891V23.4062C19.8906 23.5 19.9115 23.5833 19.9531 23.6562C20 23.724 20.0781 23.7839 20.1875 23.8359C20.2969 23.8828 20.4453 23.9193 20.6328 23.9453C20.8203 23.9714 21.0573 23.9844 21.3438 23.9844H22.1484C22.388 23.9844 22.5885 23.9531 22.75 23.8906C22.9167 23.8229 23.0625 23.7188 23.1875 23.5781C23.3125 23.4375 23.4245 23.2578 23.5234 23.0391C23.6276 22.8203 23.7344 22.5573 23.8438 22.25L24.4922 22.4688Z" fill="#8F6700"/>
</g>
<defs>
<clipPath id="clip0">
<rect width="40" height="50" fill="white"/>
</clipPath>
</defs>
</svg>
