<svg width="40" height="50" viewBox="0 0 40 50" fill="none" xmlns="http://www.w3.org/2000/svg">
<g clip-path="url(#clip0)">
<path d="M38.1097 13.0078C36.352 7.32422 31.723 2.69521 26.0394 0.9375C24.0472 0.322168 21.9964 0 20.0042 0C15.932 0 12.0063 1.25977 8.72505 3.7208C3.86157 7.29492 0.961278 13.0078 0.961278 19.043C0.961278 23.203 2.27964 27.1583 4.76987 30.4688L20.0042 50L35.2386 30.4688C38.9592 25.4883 40.014 19.131 38.1097 13.0078ZM20.0042 29.2969C14.35 29.2969 9.75034 24.6973 9.75034 19.043C9.75034 13.3887 14.35 8.78906 20.0042 8.78906C25.6585 8.78906 30.2582 13.3887 30.2582 19.043C30.2582 24.6973 25.6585 29.2969 20.0042 29.2969Z" fill="#99AFFF"/>
<path d="M35.2386 30.4688L20.0042 50V29.2969C25.6585 29.2969 30.2582 24.6973 30.2582 19.043C30.2582 13.3887 25.6585 8.78906 20.0042 8.78906V0C21.9964 0 24.0472 0.322266 26.0394 0.9375C31.723 2.69521 36.352 7.32422 38.1097 13.0078C40.014 19.131 38.9592 25.4883 35.2386 30.4688Z" fill="#CCD7FF"/>
<circle cx="20" cy="19" r="11" fill="#FFFCF3"/>
<path d="M17.5234 25V24.2734C17.9297 24.2266 18.2682 24.1745 18.5391 24.1172C18.8099 24.0547 19.026 23.9922 19.1875 23.9297C19.349 23.8672 19.4635 23.8073 19.5312 23.75C19.599 23.6875 19.6328 23.6276 19.6328 23.5703V17.9688C19.6328 17.7604 19.625 17.599 19.6094 17.4844C19.5938 17.3698 19.5547 17.276 19.4922 17.2031C19.4609 17.1719 19.4036 17.1458 19.3203 17.125C19.2422 17.1042 19.1276 17.0964 18.9766 17.1016C18.8255 17.1068 18.6302 17.125 18.3906 17.1562C18.1562 17.1875 17.8672 17.2396 17.5234 17.3125L17.2812 16.6016C17.4323 16.5755 17.6198 16.5312 17.8438 16.4688C18.0677 16.4062 18.3099 16.3359 18.5703 16.2578C18.8307 16.1745 19.099 16.0859 19.375 15.9922C19.651 15.8984 19.9141 15.8073 20.1641 15.7188C20.4193 15.6302 20.651 15.5469 20.8594 15.4688C21.0729 15.3906 21.2448 15.3255 21.375 15.2734L21.7422 15.625V23.5703C21.7422 23.6224 21.7708 23.6797 21.8281 23.7422C21.8854 23.7995 21.987 23.8594 22.1328 23.9219C22.2786 23.9844 22.4766 24.0469 22.7266 24.1094C22.9818 24.1719 23.3047 24.2266 23.6953 24.2734V25H17.5234Z" fill="#002299"/>
</g>
<defs>
<clipPath id="clip0">
<rect width="40" height="50" fill="white"/>
</clipPath>
</defs>
</svg>
