<svg width="40" height="50" viewBox="0 0 40 50" fill="none" xmlns="http://www.w3.org/2000/svg">
<g clip-path="url(#clip0)">
<path d="M38.1097 13.0078C36.352 7.32422 31.723 2.69521 26.0394 0.9375C24.0472 0.322168 21.9964 0 20.0042 0C15.932 0 12.0063 1.25977 8.72505 3.7208C3.86157 7.29492 0.961277 13.0078 0.961277 19.043C0.961277 23.203 2.27964 27.1583 4.76987 30.4688L20.0042 50L35.2386 30.4688C38.9592 25.4883 40.014 19.131 38.1097 13.0078ZM20.0042 29.2969C14.3499 29.2969 9.75034 24.6973 9.75034 19.043C9.75034 13.3887 14.3499 8.78906 20.0042 8.78906C25.6585 8.78906 30.2582 13.3887 30.2582 19.043C30.2582 24.6973 25.6585 29.2969 20.0042 29.2969Z" fill="#3360FF"/>
<path d="M35.2386 30.4688L20.0042 50V29.2969C25.6585 29.2969 30.2582 24.6973 30.2582 19.043C30.2582 13.3887 25.6585 8.78906 20.0042 8.78906V0C21.9964 0 24.0472 0.322266 26.0394 0.9375C31.723 2.69521 36.352 7.32422 38.1097 13.0078C40.014 19.131 38.9592 25.4883 35.2386 30.4688Z" fill="#6688FF"/>
<circle cx="20" cy="19" r="11" fill="#FFFCF3"/>
<path d="M23.7031 25H17.1875L16.9609 24.4219C17.5651 23.7083 18.0964 23.0755 18.5547 22.5234C19.0182 21.9661 19.4167 21.474 19.75 21.0469C20.0885 20.6146 20.3698 20.237 20.5938 19.9141C20.8177 19.5859 20.9948 19.2943 21.125 19.0391C21.2604 18.7839 21.3542 18.5573 21.4062 18.3594C21.4635 18.1562 21.4922 17.9635 21.4922 17.7812C21.4922 17.5677 21.4714 17.3698 21.4297 17.1875C21.388 17.0052 21.3229 16.849 21.2344 16.7188C21.1458 16.5833 21.0312 16.4792 20.8906 16.4062C20.75 16.3281 20.5833 16.2891 20.3906 16.2891C20.1771 16.2891 19.9974 16.3333 19.8516 16.4219C19.7057 16.5104 19.5911 16.6302 19.5078 16.7812C19.4297 16.9271 19.3802 17.0938 19.3594 17.2812C19.3438 17.4688 19.3568 17.6615 19.3984 17.8594C19.3099 17.9062 19.1823 17.9609 19.0156 18.0234C18.849 18.0807 18.6693 18.1354 18.4766 18.1875C18.2839 18.2396 18.0964 18.2865 17.9141 18.3281C17.7318 18.3646 17.5807 18.388 17.4609 18.3984L17.1719 17.7734C17.1719 17.5964 17.2161 17.4141 17.3047 17.2266C17.3932 17.0339 17.5182 16.849 17.6797 16.6719C17.8464 16.4896 18.0443 16.3203 18.2734 16.1641C18.5026 16.0026 18.7552 15.862 19.0312 15.7422C19.3125 15.6224 19.612 15.5286 19.9297 15.4609C20.2474 15.388 20.5781 15.3516 20.9219 15.3516C21.3542 15.3516 21.7422 15.3932 22.0859 15.4766C22.4297 15.5599 22.7214 15.6823 22.9609 15.8438C23.2057 16 23.3932 16.1979 23.5234 16.4375C23.6536 16.6719 23.7188 16.9427 23.7188 17.25C23.7188 17.4844 23.6849 17.7188 23.6172 17.9531C23.5547 18.1823 23.4505 18.4271 23.3047 18.6875C23.1641 18.9479 22.9792 19.2318 22.75 19.5391C22.5208 19.8411 22.2396 20.1849 21.9062 20.5703C21.5781 20.9557 21.1927 21.388 20.75 21.8672C20.3125 22.3464 19.8125 22.8932 19.25 23.5078H22.3203C22.4089 23.5078 22.487 23.4844 22.5547 23.4375C22.6276 23.3906 22.6901 23.3307 22.7422 23.2578C22.7995 23.1797 22.8464 23.0938 22.8828 23C22.9245 22.901 22.9583 22.7995 22.9844 22.6953C23.0469 22.4557 23.0911 22.1849 23.1172 21.8828L23.8203 22.0547L23.7031 25Z" fill="#002299"/>
</g>
<defs>
<clipPath id="clip0">
<rect width="40" height="50" fill="white"/>
</clipPath>
</defs>
</svg>
