<svg width="40" height="50" viewBox="0 0 40 50" fill="none" xmlns="http://www.w3.org/2000/svg">
<g clip-path="url(#clip0)">
<path d="M38.1097 13.0078C36.352 7.32422 31.723 2.69521 26.0394 0.9375C24.0472 0.322168 21.9964 0 20.0042 0C15.932 0 12.0063 1.25977 8.72505 3.7208C3.86157 7.29492 0.961281 13.0078 0.961281 19.043C0.961281 23.203 2.27964 27.1583 4.76987 30.4688L20.0042 50L35.2386 30.4688C38.9592 25.4883 40.014 19.131 38.1097 13.0078ZM20.0042 29.2969C14.35 29.2969 9.75034 24.6973 9.75034 19.043C9.75034 13.3887 14.35 8.78906 20.0042 8.78906C25.6585 8.78906 30.2582 13.3887 30.2582 19.043C30.2582 24.6973 25.6585 29.2969 20.0042 29.2969Z" fill="#002DCC"/>
<path d="M35.2386 30.4688L20.0042 50V29.2969C25.6585 29.2969 30.2581 24.6973 30.2581 19.043C30.2581 13.3887 25.6585 8.78906 20.0042 8.78906V0C21.9964 0 24.0472 0.322266 26.0394 0.9375C31.723 2.69521 36.352 7.32422 38.1097 13.0078C40.014 19.131 38.9592 25.4883 35.2386 30.4688Z" fill="#023AFF"/>
<circle cx="20" cy="19" r="11" fill="#FFFCF3"/>
<path d="M23.7344 22.0234C23.7344 22.4609 23.6432 22.875 23.4609 23.2656C23.2786 23.6562 23.026 23.9974 22.7031 24.2891C22.3802 24.5807 21.9948 24.8125 21.5469 24.9844C21.099 25.151 20.6068 25.2344 20.0703 25.2344C19.8672 25.2344 19.6328 25.2083 19.3672 25.1562C19.1068 25.1042 18.8359 25.0234 18.5547 24.9141C18.2786 24.8047 18.0026 24.6667 17.7266 24.5C17.4505 24.3333 17.1953 24.138 16.9609 23.9141L17.3047 23.0781C17.7786 23.4323 18.2161 23.6849 18.6172 23.8359C19.0234 23.987 19.4219 24.0625 19.8125 24.0625C20.0365 24.0625 20.2474 24.0286 20.4453 23.9609C20.6484 23.888 20.8255 23.7786 20.9766 23.6328C21.1276 23.4818 21.2474 23.2891 21.3359 23.0547C21.4245 22.8203 21.4688 22.5365 21.4688 22.2031C21.4688 21.8542 21.4141 21.5625 21.3047 21.3281C21.1953 21.0885 21.0599 20.8984 20.8984 20.7578C20.737 20.6172 20.5625 20.5182 20.375 20.4609C20.1875 20.3984 20.0182 20.3672 19.8672 20.3672H19.6797C19.6328 20.3672 19.5833 20.3698 19.5312 20.375C19.4844 20.3802 19.4323 20.3854 19.375 20.3906C19.3229 20.3958 19.2578 20.4062 19.1797 20.4219L19.0312 19.6406C19.4688 19.526 19.8177 19.388 20.0781 19.2266C20.3385 19.0651 20.5391 18.8958 20.6797 18.7188C20.8203 18.5365 20.9115 18.3542 20.9531 18.1719C21 17.9896 21.0234 17.8177 21.0234 17.6562C21.0234 17.4792 21.0078 17.3073 20.9766 17.1406C20.9453 16.974 20.8932 16.8281 20.8203 16.7031C20.7474 16.5781 20.6484 16.4792 20.5234 16.4062C20.4036 16.3281 20.2526 16.2891 20.0703 16.2891C19.9557 16.2891 19.8464 16.3229 19.7422 16.3906C19.638 16.4531 19.5495 16.5417 19.4766 16.6562C19.4089 16.7656 19.3646 16.8984 19.3438 17.0547C19.3229 17.2109 19.3411 17.3776 19.3984 17.5547C19.2839 17.6224 19.1458 17.6901 18.9844 17.7578C18.8281 17.8255 18.6615 17.888 18.4844 17.9453C18.3125 18.0026 18.1354 18.0521 17.9531 18.0938C17.776 18.1302 17.6094 18.1562 17.4531 18.1719L17.1719 17.6172C17.1719 17.3984 17.25 17.1589 17.4062 16.8984C17.5677 16.6328 17.7943 16.3854 18.0859 16.1562C18.3776 15.9271 18.7292 15.737 19.1406 15.5859C19.5521 15.4297 20.0104 15.3516 20.5156 15.3516C21.0208 15.3516 21.4479 15.4141 21.7969 15.5391C22.151 15.6641 22.4375 15.8307 22.6562 16.0391C22.8802 16.2422 23.0417 16.474 23.1406 16.7344C23.2396 16.9896 23.2891 17.25 23.2891 17.5156C23.2891 17.7135 23.2474 17.9167 23.1641 18.125C23.0859 18.3281 22.9714 18.5234 22.8203 18.7109C22.6745 18.8984 22.5 19.0677 22.2969 19.2188C22.0938 19.3646 21.8698 19.474 21.625 19.5469C21.9531 19.5781 22.2474 19.6667 22.5078 19.8125C22.7682 19.9531 22.9896 20.1354 23.1719 20.3594C23.3542 20.5833 23.4922 20.8385 23.5859 21.125C23.6849 21.4062 23.7344 21.7057 23.7344 22.0234Z" fill="#002299"/>
</g>
<defs>
<clipPath id="clip0">
<rect width="40" height="50" fill="white"/>
</clipPath>
</defs>
</svg>
